<?xml version="1.0" encoding="UTF-8" standalone="no"?>
<!-- Created with Inkscape (http://www.inkscape.org/) -->

<svg
   width="800"
   height="185.37"
   viewBox="0 0 799.99995 185.36999"
   version="1.1"
   id="svg1"
   inkscape:version="1.4 (e7c3feb100, 2024-10-09)"
   sodipodi:docname="imagect-logo.svg"
   xmlns:inkscape="http://www.inkscape.org/namespaces/inkscape"
   xmlns:sodipodi="http://sodipodi.sourceforge.net/DTD/sodipodi-0.dtd"
   xmlns="http://www.w3.org/2000/svg"
   xmlns:svg="http://www.w3.org/2000/svg">
  <sodipodi:namedview
     id="namedview1"
     pagecolor="#505050"
     bordercolor="#eeeeee"
     borderopacity="1"
     inkscape:showpageshadow="0"
     inkscape:pageopacity="0"
     inkscape:pagecheckerboard="0"
     inkscape:deskcolor="#505050"
     inkscape:document-units="px"
     inkscape:zoom="0.70710678"
     inkscape:cx="408.70772"
     inkscape:cy="1.4142136"
     inkscape:window-width="1362"
     inkscape:window-height="768"
     inkscape:window-x="0"
     inkscape:window-y="0"
     inkscape:window-maximized="0"
     inkscape:current-layer="layer1">
    <inkscape:page
       x="0"
       y="0"
       width="799.99994"
       height="185.37"
       id="page6"
       margin="0"
       bleed="0" />
  </sodipodi:namedview>
  <defs
     id="defs1">
    <inkscape:path-effect
       effect="offset"
       id="path-effect3"
       is_visible="true"
       lpeversion="1.2"
       linejoin_type="miter"
       unit="mm"
       offset="0.8"
       miter_limit="4"
       attempt_force_join="false"
       update_on_knot_move="true" />
    <inkscape:path-effect
       effect="offset"
       id="path-effect2"
       is_visible="true"
       lpeversion="1.2"
       linejoin_type="miter"
       unit="mm"
       offset="0.2"
       miter_limit="4"
       attempt_force_join="false"
       update_on_knot_move="true" />
    <inkscape:path-effect
       effect="offset"
       id="path-effect1"
       is_visible="true"
       lpeversion="1.2"
       linejoin_type="round"
       unit="mm"
       offset="-1"
       miter_limit="4"
       attempt_force_join="false"
       update_on_knot_move="true" />
  </defs>
  <g
     inkscape:label="Layer 1"
     inkscape:groupmode="layer"
     id="layer1"
     transform="translate(-225.93213,-20.22195)">
    <g
       id="g6"
       transform="matrix(1.2647208,0,0,1.2647208,-5.1504488,-210.86158)"
       inkscape:label="logo"
       style="fill:#f2f2f2">
      <g
         id="g4"
         transform="matrix(0.90929077,0,0,0.90929077,136.54703,129.90303)"
         style="display:inline;fill:#f2f2f2;stroke:none"
         inkscape:label="draw">
        <path
           style="font-weight:900;font-size:133.333px;font-family:Roboto;-inkscape-font-specification:'Roboto, Heavy';fill:#f2f2f2;stroke:none;stroke-width:0.34028"
           d="m 106.55566,123.67082 c 3.98581,0 7.50269,-2.11013 9.61282,-5.62701 2.11013,-3.28242 2.11013,-7.73713 0,-11.25401 -2.11013,-3.28243 -5.62701,-5.62702 -9.61282,-5.62702 -4.22026,0 -7.737145,2.34459 -9.84727,5.62702 -2.110124,3.51688 -2.110124,7.97159 0,11.25401 2.110125,3.51688 5.62701,5.62701 9.84727,5.62701 z"
           id="path4"
           inkscape:label="sun" />
        <path
           style="font-weight:900;font-size:133.333px;font-family:Roboto;-inkscape-font-specification:'Roboto, Heavy';fill:#f2f2f2;stroke:none;stroke-width:0.34028"
           d="m 147.22838,126.24987 c -0.93783,-1.64121 -2.8135,-2.57905 -4.45471,-2.57905 -1.87567,0 -3.75134,0.93784 -4.68917,2.57905 l -20.39792,30.01071 -6.33038,-7.97159 c -0.93783,-1.17229 -2.57905,-2.11013 -4.22026,-2.11013 -1.87567,0 -3.51688,0.93784 -4.45471,2.11013 l -15.005366,18.7567 c -1.406747,1.87567 -1.641209,4.22026 -0.703369,6.09592 0.937831,1.87567 2.813503,3.04797 5.15809,3.04797 h 22.508035 7.50268 48.76742 c 1.87566,0 3.9858,-0.93784 4.92363,-2.81351 0.93784,-1.87567 0.70337,-4.22026 -0.46892,-5.86147 z"
           id="path3"
           inkscape:label="mountains" />
      </g>
      <g
         id="g5"
         inkscape:label="frame"
         transform="translate(121.51855,109.8916)"
         style="fill:#f2f2f2">
        <path
           style="color:#000000;display:inline;fill:#f2f2f2;stroke-linecap:round;-inkscape-stroke:none"
           d="m 81.050781,72.822266 c -2.133635,0 -3.855469,1.721833 -3.855469,3.855468 V 203.39453 H 203.91211 c 2.13363,0 3.85547,-1.72183 3.85547,-3.85547 0,-2.13363 -1.72184,-3.85547 -3.85547,-3.85547 H 84.90625 V 76.677734 c 0,-2.133635 -1.721833,-3.855468 -3.855469,-3.855468 z"
           id="path2"
           inkscape:label="bottom-left" />
        <path
           id="rect2-7"
           style="color:#000000;display:inline;fill:#f2f2f2;stroke-linecap:round;-inkscape-stroke:none"
           inkscape:label="top-right"
           d="m 65.050781,88.822266 c -2.133635,0 -3.855469,1.721833 -3.855469,3.855468 0,2.133636 1.721834,3.855469 3.855469,3.855469 H 78.90625 v -7.710937 z m 30.144531,0 v 7.710937 h 88.861328 v 88.861327 h 7.71094 V 88.822266 Z M 184.05664,201.68359 v 13.85547 c 0,2.13364 1.72183,3.85547 3.85547,3.85547 2.13363,0 3.85547,-1.72183 3.85547,-3.85547 v -13.85547 z" />
      </g>
    </g>
    <path
       style="font-weight:300;font-size:365.371px;font-family:Roboto;-inkscape-font-specification:'Roboto, Light';display:inline;fill:#f2f2f2;stroke-width:2.90096;stroke-linecap:round"
       d="m 995.16179,43.29296 v 22.936039 h -16.47727 v 8.815627 h 16.47727 v 59.432284 c 0,7.71708 1.55624,13.63107 4.71198,17.68837 3.17833,4.02961 8.23193,6.01184 15.09763,6.01184 4.4896,0 8.0775,-0.47285 10.7174,-1.42772 l 0.2439,-0.0888 -0.4461,-8.76034 -0.3825,0.0571 c -3.6946,0.55144 -6.3442,0.82399 -7.9807,0.82399 -4.117,0 -7.0067,-1.18893 -8.7413,-3.49905 v -0.001 c 0,-3.6e-4 0,-7.1e-4 0,-10e-4 -1.7062,-2.34841 -2.5799,-5.95588 -2.5799,-10.88515 V 75.044626 h 18.5477 v -8.815627 h -18.5477 V 43.29296 Z"
       id="path1"
       inkscape:label="t" />
    <path
       style="font-weight:300;font-size:365.371px;font-family:Roboto;-inkscape-font-specification:'Roboto, Light';display:inline;fill:#f2f2f2;stroke-width:2.90096;stroke-linecap:round"
       d="m 924.51078,64.572831 c -7.7876,0 -14.61605,1.864243 -20.47677,5.603932 -5.80258,3.7382 -10.26036,9.036054 -13.37713,15.881731 -3.11534,6.842708 -4.66929,14.704116 -4.66929,23.577836 v 2.98054 c 0,13.86184 3.43814,24.93213 10.35031,33.18212 6.97934,8.26354 16.396,12.37813 28.25532,12.37813 6.0146,0 11.64062,-1.28013 16.8789,-3.84352 5.29503,-2.5639 9.53621,-6.10587 12.7208,-10.63133 3.18368,-4.58001 4.91662,-9.63826 5.19598,-15.16922 l 0.0179,-0.36894 h -10.22068 l -0.02,0.32905 c -0.37991,6.07794 -2.88383,11.05537 -7.49304,14.90544 -4.56298,3.80242 -10.25374,5.71452 -17.0801,5.71452 -8.8937,0 -15.7824,-3.16782 -20.67075,-9.46831 -4.85175,-6.32363 -7.29634,-15.15468 -7.29634,-26.53118 v -2.89805 c 0,-11.598833 2.4452,-20.567178 7.29634,-26.944549 4.89057,-6.357693 11.75133,-9.550789 20.58823,-9.550789 6.92971,0 12.63896,2.127058 17.14902,6.365376 4.5632,4.237256 7.07019,9.809319 7.50664,16.738367 l 0.0208,0.329054 h 10.21799 l -0.0161,-0.367131 c -0.4455,-9.633949 -3.90243,-17.424603 -10.38019,-23.343961 -6.42274,-5.920064 -14.59386,-8.869116 -24.49796,-8.869116 z"
       id="path9"
       inkscape:label="c" />
    <path
       style="font-weight:300;font-size:365.371px;font-family:Roboto;-inkscape-font-specification:'Roboto, Light';display:inline;fill:#f2f2f2;stroke-width:2.90096;stroke-linecap:round"
       d="m 830.91979,64.572831 c -7.03051,1.1e-5 -13.54975,2.007504 -19.56846,6.02001 -6.01863,3.956723 -10.72267,9.415254 -14.11676,16.370331 -3.33745,6.953044 -5.00204,14.760598 -5.00204,23.418298 v 3.5607 c 0,8.38633 1.72138,15.97289 5.17244,22.7638 3.45066,6.73442 8.26788,12.00049 14.45398,15.79018 6.2406,3.78891 13.20394,5.68097 20.88287,5.68097 13.96662,0 24.64052,-5.31572 32.00099,-15.96603 l 0.19126,-0.27557 -6.75337,-5.13346 -0.21305,0.27376 c -3.28403,4.21456 -6.94238,7.26857 -10.97037,9.17369 -3.97392,1.9053 -8.58685,2.86361 -13.84209,2.86361 -8.72065,0 -15.98088,-3.32893 -21.75852,-9.97865 -5.73298,-6.7158 -8.60986,-15.11043 -8.60986,-25.1923 v -1.55373 h 63.92306 v -5.89854 c 0,-12.92366 -3.21714,-23.14021 -9.68858,-30.615838 -6.42828,-7.54622 -15.12685,-11.30122 -26.1015,-11.301231 z m 0,9.147411 c 7.40197,0 13.38958,2.67076 17.95031,7.991626 4.57203,5.334038 7.01075,12.270694 7.2846,20.813952 v 0.71521 h -52.96723 c 1.13897,-8.96615 4.16965,-16.118445 9.10936,-21.433983 5.06115,-5.387708 11.27799,-8.086805 18.62296,-8.086805 z"
       id="path8"
       inkscape:label="e" />
    <path
       style="font-weight:300;font-size:365.371px;font-family:Roboto;-inkscape-font-specification:'Roboto, Light';display:inline;fill:#f2f2f2;stroke-width:2.90096;stroke-linecap:round"
       d="m 735.01272,64.572831 c -10.76665,1.1e-5 -19.30692,4.155044 -25.61747,12.476042 -6.24163,8.247933 -9.34506,19.42509 -9.34506,33.498487 v 1.32438 c 0,14.13012 3.15825,25.38809 9.51092,33.74686 6.36315,8.37259 14.79131,12.55852 25.28565,12.55852 11.86837,0 20.98621,-4.21953 27.38783,-12.60929 v 10.26511 c -0.16431,8.60141 -2.54446,15.27096 -7.1078,20.05158 -4.55636,4.82761 -10.91858,7.26009 -19.12059,7.26009 -9.52988,0 -17.78624,-4.25302 -24.73452,-12.78787 l -0.25474,-0.31274 -6.01549,6.4651 0.16321,0.23206 c 3.29487,4.69108 7.78449,8.42553 13.46233,11.20876 5.73423,2.83931 11.74721,4.2587 18.04095,4.2587 11.1204,0 19.96493,-3.39422 26.50127,-10.20981 6.53635,-6.81577 9.78559,-16.03918 9.78559,-27.6498 V 66.228999 h -9.96146 l -0.47141,12.253046 C 756.12353,69.235046 746.962,64.572842 735.01272,64.572842 Z m 1.82111,9.313298 c 6.06572,0 11.23841,1.501606 15.53456,4.492567 4.2799,2.925499 7.57079,7.213023 9.8662,12.871273 v 41.483761 c -5.02576,10.76485 -13.52237,16.13101 -25.56665,16.13101 -8.22012,0 -14.57762,-3.23676 -19.0871,-9.70218 -4.52881,-6.54768 -6.80955,-15.49613 -6.80955,-26.87655 0,-12.714181 2.30836,-22.258161 6.8911,-28.695898 4.56548,-6.467748 10.95125,-9.703983 19.17144,-9.703983 z"
       id="path7"
       inkscape:label="g" />
    <path
       style="font-weight:300;font-size:365.371px;font-family:Roboto;-inkscape-font-specification:'Roboto, Light';display:inline;fill:#f2f2f2;stroke-width:2.90096;stroke-linecap:round"
       d="m 645.15194,64.572831 c -9.73166,0 -17.94716,2.639035 -24.64306,7.939963 -6.70073,5.248931 -10.0711,11.484783 -10.0711,18.741708 v 0.348091 l 10.63862,0.08793 v -0.353526 c 0,-4.834889 2.20667,-9.003635 6.65453,-12.47514 4.45406,-3.476322 10.08764,-5.225014 16.9242,-5.225014 7.50349,0 13.14651,1.832897 16.9813,5.451646 v 0.0014 0.0014 c 3.88955,3.565415 5.84867,8.490438 5.84867,14.81207 v 9.833611 h -17.61763 c -13.01658,0 -23.22438,2.54831 -30.58956,7.68161 -7.3279,5.14633 -10.99574,12.14418 -10.99574,20.98708 0,7.44719 2.68198,13.59954 8.06507,18.47792 5.4328,4.87272 12.49819,7.29272 21.18291,7.29272 6.06702,0 11.8005,-1.2237 17.20431,-3.67492 5.19319,-2.38465 9.47789,-5.73323 12.91109,-9.98771 0.29976,5.07757 0.89479,9.0769 1.84651,11.77351 l 0.0825,0.23388 h 11.19791 v -1.41658 l -0.0283,-0.0653 c -1.79695,-4.24734 -2.70506,-10.67287 -2.70506,-19.32095 v -42.398408 -0.0032 c -0.16728,-9.035731 -3.17159,-16.074069 -9.06212,-21.123066 -5.82154,-5.093836 -13.77515,-7.621772 -23.82893,-7.621779 z m 4.96755,47.484739 h 17.36922 v 19.26838 c -2.34357,5.25551 -6.09488,9.46919 -11.26042,12.62289 -5.12853,3.16443 -10.97111,4.75001 -17.53515,4.75001 -5.88864,0 -10.66492,-1.63609 -14.33891,-4.87783 -3.6163,-3.23853 -5.43075,-7.32652 -5.43075,-12.24216 0,-5.99431 2.71997,-10.6936 8.19921,-14.11135 5.5024,-3.48665 13.15825,-5.3 22.9968,-5.40994 z"
       id="path6"
       inkscape:label="a" />
    <path
       style="font-weight:300;font-size:365.371px;font-family:Roboto;-inkscape-font-specification:'Roboto, Light';display:inline;fill:#f2f2f2;stroke-width:2.90096;stroke-linecap:round"
       d="m 501.79618,64.572831 c -6.12745,0 -11.70341,1.36473 -16.72748,4.100067 -4.73395,2.577377 -8.6889,6.408742 -11.92671,11.395505 l -0.31454,-13.839404 h -10.21526 v 90.292881 h 10.63768 V 94.793448 c 2.1375,-6.937332 5.40982,-12.130095 9.8046,-15.602527 4.4014,-3.531986 9.68164,-5.304789 15.84366,-5.304789 7.33295,0 12.69273,1.886568 16.13736,5.600303 l 10e-4,0.0014 0.001,0.0014 c 3.50554,3.667328 5.31345,9.282216 5.36825,16.897902 v 60.133923 h 10.63767 V 96.909199 c 0.54531,-6.364739 3.23559,-11.74824 8.08409,-16.160929 4.84371,-4.462746 10.77916,-6.752631 17.81708,-6.862138 7.60831,3.58e-4 13.01685,1.918433 16.29329,5.67826 3.34582,3.777565 5.07403,9.615081 5.12892,17.568705 v 59.388783 h 10.63766 v -60.13754 -0.0032 c -0.38957,-21.150261 -10.32821,-31.808775 -29.74559,-31.808782 -6.51692,0 -12.4816,1.532222 -17.88961,4.598631 -5.21888,2.905361 -9.39966,7.058526 -12.59116,12.39446 -3.98797,-11.311579 -12.9947,-16.993084 -26.98353,-16.993091 z"
       id="path5"
       inkscape:label="m" />
    <path
       id="path10"
       style="font-weight:300;font-size:365.371px;font-family:Roboto;-inkscape-font-specification:'Roboto, Light';display:inline;fill:#f2f2f2;stroke-width:2.90096;stroke-linecap:round"
       d="m 436.11182,33.604763 c -2.17944,0 -3.93193,0.692944 -5.22266,2.099609 -1.27963,1.339294 -1.91797,2.996622 -1.91797,4.957031 0,1.961883 0.63829,3.624948 1.91992,4.964844 1.2929,1.351668 3.04344,2.011719 5.22071,2.011719 2.17498,0 3.92624,-0.660978 5.21875,-2.009766 1.33747,-1.338214 2.0039,-3.001816 2.0039,-4.966797 0,-1.960446 -0.66486,-3.618529 -1.99609,-4.955078 -0.002,-0.0021 -0.004,-0.0038 -0.006,-0.0059 -1.29041,-1.404074 -3.04326,-2.095703 -5.2207,-2.095703 z m -5.22266,2.099609 c 7.2e-4,-10e-4 -7.2e-4,-0.0029 0,-0.0039 l -0.004,0.0059 c 7.1e-4,-8.59e-4 0.002,-0.0012 0.004,-0.002 z m -0.17773,30.525389 v 90.292969 h 10.63671 V 66.229761 Z"
       inkscape:label="i" />
  </g>
</svg>
