<?xml version="1.0" encoding="UTF-8" standalone="no"?>
<!-- Created with Inkscape (http://www.inkscape.org/) -->

<svg
   width="220"
   height="220"
   viewBox="0 0 220.00001 220.00001"
   version="1.1"
   id="svg5"
   inkscape:version="1.2 (dc2aeda, 2022-05-15)"
   sodipodi:docname="ict-logo.svg"
   inkscape:export-filename="ict-logo.png"
   inkscape:export-xdpi="254"
   inkscape:export-ydpi="254"
   xmlns:inkscape="http://www.inkscape.org/namespaces/inkscape"
   xmlns:sodipodi="http://sodipodi.sourceforge.net/DTD/sodipodi-0.dtd"
   xmlns:xlink="http://www.w3.org/1999/xlink"
   xmlns="http://www.w3.org/2000/svg"
   xmlns:svg="http://www.w3.org/2000/svg">
  <sodipodi:namedview
     id="namedview7"
     pagecolor="#ffffff"
     bordercolor="#000000"
     borderopacity="0.25"
     inkscape:showpageshadow="2"
     inkscape:pageopacity="0.0"
     inkscape:pagecheckerboard="0"
     inkscape:deskcolor="#d1d1d1"
     inkscape:document-units="px"
     showgrid="false"
     inkscape:zoom="1.4142136"
     inkscape:cx="114.19774"
     inkscape:cy="114.19774"
     inkscape:window-width="1366"
     inkscape:window-height="723"
     inkscape:window-x="0"
     inkscape:window-y="26"
     inkscape:window-maximized="1"
     inkscape:current-layer="layer1" />
  <defs
     id="defs2">
    <linearGradient
       inkscape:collect="always"
       id="linearGradient1517">
      <stop
         style="stop-color:#ffffff;stop-opacity:1;"
         offset="0"
         id="stop1507" />
      <stop
         style="stop-color:#ebebeb;stop-opacity:1;"
         offset="0.29928377"
         id="stop1509" />
      <stop
         style="stop-color:#bfbfbf;stop-opacity:1;"
         offset="0.5"
         id="stop1511" />
      <stop
         style="stop-color:#e9e9e9;stop-opacity:1;"
         offset="0.69670665"
         id="stop1513" />
      <stop
         style="stop-color:#ffffff;stop-opacity:1;"
         offset="1"
         id="stop1515" />
    </linearGradient>
    <linearGradient
       inkscape:collect="always"
       id="linearGradient1269">
      <stop
         style="stop-color:#bfbfbf;stop-opacity:1;"
         offset="0"
         id="stop1265" />
      <stop
         style="stop-color:#ebebeb;stop-opacity:1;"
         offset="0.29928377"
         id="stop1403" />
      <stop
         style="stop-color:#ffffff;stop-opacity:1;"
         offset="0.5"
         id="stop1273" />
      <stop
         style="stop-color:#e9e9e9;stop-opacity:1;"
         offset="0.69670665"
         id="stop1401" />
      <stop
         style="stop-color:#bfbfbf;stop-opacity:1;"
         offset="1"
         id="stop1267" />
    </linearGradient>
    <linearGradient
       inkscape:collect="always"
       xlink:href="#linearGradient1269"
       id="linearGradient1271"
       x1="329.18118"
       y1="353.58826"
       x2="549.53314"
       y2="573.56561"
       gradientUnits="userSpaceOnUse"
       gradientTransform="matrix(0.94695095,0,0,0.94695095,-305.79767,-329.16174)" />
    <linearGradient
       inkscape:collect="always"
       xlink:href="#linearGradient1517"
       id="linearGradient1505"
       x1="341.85782"
       y1="366.26904"
       x2="538.56824"
       y2="563.33759"
       gradientUnits="userSpaceOnUse"
       gradientTransform="matrix(0.99454235,0,0,0.99454235,-326.55621,-351.0945)" />
  </defs>
  <g
     inkscape:label="logo"
     inkscape:groupmode="layer"
     id="layer1">
    <rect
       style="display:inline;fill:url(#linearGradient1271);fill-opacity:1;stroke:url(#linearGradient1505);stroke-width:2;stroke-linecap:round;stroke-linejoin:round;stroke-dasharray:none;stroke-dashoffset:10.2803;stop-color:#000000"
       id="rect1206"
       width="218.00008"
       height="218.00008"
       x="0.99996114"
       y="0.99995798"
       ry="11.667994"
       inkscape:label="plate" />
    <g
       id="g1097"
       style="stroke-width:0.9;stroke-dasharray:none"
       transform="matrix(0.99454235,0,0,0.99454235,-328.75969,-354.06255)"
       inkscape:label="letters">
      <path
         id="path951-1-9-90"
         style="font-weight:bold;font-size:121.027px;font-family:'RobotoMono Nerd Font';-inkscape-font-specification:'RobotoMono Nerd Font, Bold';fill:#0000ff;fill-opacity:1;stroke:none;stroke-width:0.9;stroke-linecap:round;stroke-linejoin:round;stroke-dasharray:none;stroke-opacity:1;stop-color:#000000"
         inkscape:label="I"
         d="m 354.10352,421.95117 -0.002,22.68164 h 26.45899 v 94.01563 h -26.45703 v 22.58789 h 87.39257 l -0.004,-0.0117 c -7.8013,-0.0571 -14.7456,-1.50225 -20.82031,-4.35742 -6.19878,-2.97541 -11.40596,-7.09627 -15.6211,-12.36524 -4.21526,-5.33095 -7.43854,-11.71576 -9.66992,-19.15429 -2.23163,-7.43854 -3.3457,-15.62064 -3.3457,-24.54688 v -18.22461 c 0,-8.98822 1.17777,-17.2021 3.5332,-24.64062 2.35556,-7.43855 5.70182,-13.82336 10.04102,-19.1543 4.33906,-5.33095 9.57802,-9.45376 15.71484,-12.36719 6.01862,-2.88894 12.74483,-4.36325 20.16601,-4.44726 l 0.006,-0.0156 z" />
      <path
         id="path1894"
         style="font-weight:bold;font-size:121.027px;font-family:'RobotoMono Nerd Font';-inkscape-font-specification:'RobotoMono Nerd Font, Bold';display:inline;fill:#ff0000;fill-opacity:1;stroke:none;stroke-width:0.9;stroke-linecap:round;stroke-linejoin:round;stroke-dasharray:none;stroke-opacity:1;stop-color:#000000"
         inkscape:label="T"
         d="m 426.34766,372.25977 v 23.86328 h 38.55078 v 30.17578 c 4.56848,1.99989 8.5534,4.60548 11.93554,7.83398 4.09135,3.90523 7.3145,8.67749 9.66993,14.31836 2.33796,5.59878 2.32766,11.90297 2.93359,18.90625 v -71.23437 h 39.07422 v -23.86328 z"
         sodipodi:nodetypes="cccccsccccc" />
      <path
         d="m 489.44873,516.88571 c -0.43389,6.81865 -0.49661,12.95545 -3.03807,18.41038 -2.47949,5.45494 -5.82687,10.10401 -10.04201,13.94725 -4.21515,3.84327 -9.23622,6.81868 -15.06309,8.92625 -5.82686,2.04561 -12.27351,3.06734 -19.34019,3.06734 -7.99641,0 -15.09407,-1.45564 -21.29273,-4.36907 -6.19878,-2.97541 -11.40575,-7.0976 -15.62089,-12.36657 -4.21527,-5.33096 -7.43872,-11.7157 -9.6701,-19.15424 -2.23163,-7.43854 -3.34738,-15.62093 -3.34738,-24.54718 v -18.22444 c 0,-8.98823 1.17772,-17.20161 3.53315,-24.64014 2.35556,-7.43855 5.70294,-13.82329 10.04214,-19.15424 4.33907,-5.33096 9.57702,-9.45316 15.71384,-12.36659 6.19879,-2.97542 13.14141,-4.46413 20.82799,-4.46413 7.43847,0 14.04028,1.0548 19.80519,3.1624 5.82687,2.10758 10.78585,5.11399 14.87693,9.01922 4.09135,3.90523 7.31467,8.6783 9.6701,14.31918 2.35556,5.6409 2.32509,11.99488 2.94512,19.0615 l -24.54285,-2.3e-4 c -0.24798,-4.02921 -0.84173,-7.56252 -1.83355,-10.59992 -0.92986,-3.0374 -2.3247,-5.54791 -4.18429,-7.53153 -1.79762,-2.04559 -4.09121,-3.56429 -6.88066,-4.5561 -2.72734,-1.0538 -6.01276,-1.58069 -9.85599,-1.58069 -4.02912,0 -7.53154,0.86782 -10.507,2.60348 -2.97547,1.73567 -5.45496,4.27717 -7.43847,7.62451 -1.92168,3.34735 -3.34738,7.46953 -4.27724,12.36658 -0.92973,4.83505 -1.39459,10.35197 -1.39459,16.55074 v 18.4104 c 0,13.32738 1.85958,23.18344 5.57875,29.56818 3.78127,6.38475 9.73219,9.57713 17.85253,9.57713 6.81869,0 12.21168,-1.79765 16.17884,-5.39294 3.96728,-3.65728 6.32779,-9.54613 6.76167,-17.66653 z"
         id="path953-5-0-8-5"
         style="font-weight:bold;font-size:121.027px;font-family:'RobotoMono Nerd Font';-inkscape-font-specification:'RobotoMono Nerd Font, Bold';display:inline;fill:#000000;fill-opacity:1;stroke:none;stroke-width:0.9;stroke-linecap:round;stroke-linejoin:round;stroke-dasharray:none;stroke-opacity:1;stop-color:#000000"
         sodipodi:nodetypes="ccscsccssssscscsscccccssccsscsccc"
         inkscape:label="C" />
    </g>
  </g>
</svg>
