<?xml version="1.0" encoding="UTF-8" standalone="no"?>
<!-- Created with Inkscape (http://www.inkscape.org/) -->

<svg
   width="800"
   height="185.37"
   viewBox="0 0 799.99995 185.36999"
   version="1.1"
   id="svg1"
   inkscape:version="1.3.2 (091e20ef0f, 2023-11-25, custom)"
   sodipodi:docname="imagect-logo.svg"
   xmlns:inkscape="http://www.inkscape.org/namespaces/inkscape"
   xmlns:sodipodi="http://sodipodi.sourceforge.net/DTD/sodipodi-0.dtd"
   xmlns="http://www.w3.org/2000/svg"
   xmlns:svg="http://www.w3.org/2000/svg">
  <sodipodi:namedview
     id="namedview1"
     pagecolor="#505050"
     bordercolor="#eeeeee"
     borderopacity="1"
     inkscape:showpageshadow="0"
     inkscape:pageopacity="0"
     inkscape:pagecheckerboard="0"
     inkscape:deskcolor="#505050"
     inkscape:document-units="px"
     inkscape:zoom="0.35355339"
     inkscape:cx="339.41125"
     inkscape:cy="190.91883"
     inkscape:window-width="1362"
     inkscape:window-height="714"
     inkscape:window-x="0"
     inkscape:window-y="0"
     inkscape:window-maximized="0"
     inkscape:current-layer="layer1">
    <inkscape:page
       x="0"
       y="0"
       width="799.99994"
       height="185.37"
       id="page6"
       margin="0 0 0 0"
       bleed="0" />
  </sodipodi:namedview>
  <defs
     id="defs1">
    <inkscape:path-effect
       effect="offset"
       id="path-effect3"
       is_visible="true"
       lpeversion="1.2"
       linejoin_type="miter"
       unit="mm"
       offset="0.8"
       miter_limit="4"
       attempt_force_join="false"
       update_on_knot_move="true" />
    <inkscape:path-effect
       effect="offset"
       id="path-effect2"
       is_visible="true"
       lpeversion="1.2"
       linejoin_type="miter"
       unit="mm"
       offset="0.2"
       miter_limit="4"
       attempt_force_join="false"
       update_on_knot_move="true" />
    <inkscape:path-effect
       effect="offset"
       id="path-effect1"
       is_visible="true"
       lpeversion="1.2"
       linejoin_type="round"
       unit="mm"
       offset="-1"
       miter_limit="4"
       attempt_force_join="false"
       update_on_knot_move="true" />
  </defs>
  <g
     inkscape:label="Layer 1"
     inkscape:groupmode="layer"
     id="layer1"
     transform="translate(-225.93213,-20.22195)">
    <g
       id="g1"
       inkscape:label="long-logo"
       transform="matrix(0.35783036,0,0,0.35783036,227.01351,19.704683)"
       style="fill:#f2f2f2">
      <g
         id="g6"
         transform="matrix(3.5344146,0,0,3.5344146,-648.81012,-644.34518)"
         inkscape:label="logo"
         style="fill:#f2f2f2">
        <g
           id="g4"
           transform="matrix(0.90929077,0,0,0.90929077,136.54703,129.90303)"
           style="display:inline;fill:#f2f2f2;stroke:none"
           inkscape:label="draw">
          <path
             style="font-weight:900;font-size:133.333px;font-family:Roboto;-inkscape-font-specification:'Roboto, Heavy';fill:#f2f2f2;stroke:none;stroke-width:0.34028"
             d="m 106.55566,123.67082 c 3.98581,0 7.50269,-2.11013 9.61282,-5.62701 2.11013,-3.28242 2.11013,-7.73713 0,-11.25401 -2.11013,-3.28243 -5.62701,-5.62702 -9.61282,-5.62702 -4.22026,0 -7.737145,2.34459 -9.84727,5.62702 -2.110124,3.51688 -2.110124,7.97159 0,11.25401 2.110125,3.51688 5.62701,5.62701 9.84727,5.62701 z"
             id="path4"
             inkscape:label="sun" />
          <path
             style="font-weight:900;font-size:133.333px;font-family:Roboto;-inkscape-font-specification:'Roboto, Heavy';fill:#f2f2f2;stroke:none;stroke-width:0.34028"
             d="m 147.22838,126.24987 c -0.93783,-1.64121 -2.8135,-2.57905 -4.45471,-2.57905 -1.87567,0 -3.75134,0.93784 -4.68917,2.57905 l -20.39792,30.01071 -6.33038,-7.97159 c -0.93783,-1.17229 -2.57905,-2.11013 -4.22026,-2.11013 -1.87567,0 -3.51688,0.93784 -4.45471,2.11013 l -15.005366,18.7567 c -1.406747,1.87567 -1.641209,4.22026 -0.703369,6.09592 0.937831,1.87567 2.813503,3.04797 5.15809,3.04797 h 22.508035 7.50268 48.76742 c 1.87566,0 3.9858,-0.93784 4.92363,-2.81351 0.93784,-1.87567 0.70337,-4.22026 -0.46892,-5.86147 z"
             id="path3"
             inkscape:label="mountains" />
        </g>
        <g
           id="g5"
           inkscape:label="frame"
           transform="translate(121.51855,109.8916)"
           style="fill:#f2f2f2">
          <path
             style="color:#000000;display:inline;fill:#f2f2f2;stroke-linecap:round;-inkscape-stroke:none"
             d="m 81.050781,72.822266 c -2.133635,0 -3.855469,1.721833 -3.855469,3.855468 V 203.39453 H 203.91211 c 2.13363,0 3.85547,-1.72183 3.85547,-3.85547 0,-2.13363 -1.72184,-3.85547 -3.85547,-3.85547 H 84.90625 V 76.677734 c 0,-2.133635 -1.721833,-3.855468 -3.855469,-3.855468 z"
             id="path2"
             inkscape:label="bottom-left" />
          <path
             id="rect2-7"
             style="color:#000000;display:inline;fill:#f2f2f2;stroke-linecap:round;-inkscape-stroke:none"
             inkscape:label="top-right"
             d="m 65.050781,88.822266 c -2.133635,0 -3.855469,1.721833 -3.855469,3.855468 0,2.133636 1.721834,3.855469 3.855469,3.855469 H 78.90625 v -7.710937 z m 30.144531,0 v 7.710937 h 88.861328 v 88.861327 h 7.71094 V 88.822266 Z M 184.05664,201.68359 v 13.85547 c 0,2.13364 1.72183,3.85547 3.85547,3.85547 2.13363,0 3.85547,-1.72183 3.85547,-3.85547 v -13.85547 z" />
        </g>
      </g>
      <path
         d="m 617.88756,38.846908 c -6.0907,0 -10.99228,1.933492 -14.59939,5.864586 -3.57608,3.742819 -5.3554,8.378553 -5.3554,13.857153 0,5.482719 1.77878,10.125312 5.36047,13.869812 3.61316,3.7774 8.50967,5.62392 14.59432,5.62392 6.07825,0 10.96961,-1.84443 14.58168,-5.61378 3.73773,-3.7398 5.60366,-8.388577 5.60366,-13.879952 0,-5.486799 -1.86477,-10.129287 -5.59606,-13.867284 -3.60621,-3.923855 -8.50415,-5.854455 -14.58928,-5.854455 z m 14.58928,5.854455 c 0.004,0.0058 0.013,0.0093 0.0177,0.0152 l -0.0278,-0.0304 c 0.003,0.0045 0.004,0.01063 0.011,0.0152 z m -29.18867,0.01008 c 0.002,-0.0028 0.002,-0.0072 0.004,-0.01008 l -0.013,0.0152 c 0.002,-0.0024 0.004,-0.0028 0.009,-0.005 z M 2146.6828,65.920279 V 130.0178 h -46.0477 v 24.63633 h 46.0477 V 320.7448 c 0,21.56631 4.3491,38.09366 13.1682,49.43229 8.8823,11.26121 23.0052,16.80081 42.1921,16.80081 12.5468,0 22.5736,-1.32144 29.9511,-3.98994 l 0.6815,-0.24826 -1.2465,-24.48181 -1.069,0.15962 c -10.3251,1.54107 -17.7296,2.30275 -22.3031,2.30275 -11.5053,0 -19.5809,-3.32261 -24.4286,-9.77852 v -0.004 c 0,-0.001 0,-0.002 0,-0.004 -4.7682,-6.56292 -7.2098,-16.64442 -7.2098,-30.41986 V 154.65413 h 51.8337 V 130.0178 h -51.8337 V 65.920279 Z M 813.88131,125.38944 c -17.12389,0 -32.70659,3.8139 -46.74696,11.45813 -13.2296,7.20279 -24.28217,17.91 -33.33062,31.84611 L 732.92469,130.0178 H 704.37693 V 382.35211 H 734.1052 V 209.84459 c 5.97351,-19.38721 15.11839,-33.89901 27.40015,-43.60314 12.30023,-9.87056 27.05649,-14.82487 44.277,-14.82487 20.49281,0 35.47136,5.27224 45.09779,15.65072 l 0.004,0.004 0.004,0.004 c 9.79666,10.24879 14.84907,25.94027 15.00221,47.22322 V 382.34999 H 895.6186 V 215.75731 c 1.52395,-17.78703 9.04225,-32.83187 22.59196,-45.16366 13.53635,-12.47168 30.12367,-18.87104 49.79199,-19.17707 21.26234,10e-4 36.37715,5.36129 45.53355,15.86858 9.3503,10.55686 14.18,26.8705 14.3334,49.09786 v 165.96909 h 29.7282 v -168.06158 -0.009 c -1.0887,-59.10695 -28.8634,-88.89345 -83.12763,-88.89347 -18.2123,0 -34.88132,4.28198 -49.99466,12.85143 -14.58478,8.11938 -26.26847,19.7259 -35.18752,34.63781 -11.14486,-31.61157 -36.31525,-47.48922 -75.40871,-47.48924 z m 401.94099,0 c -27.1963,0 -50.1555,7.3751 -68.868,22.18918 -18.726,14.66877 -28.1449,32.09561 -28.1449,52.37596 v 0.97278 l 29.7309,0.24572 v -0.98797 c 0,-13.51168 6.1668,-25.16174 18.5969,-34.86328 12.4474,-9.715 28.1911,-14.60193 47.2967,-14.60193 20.9694,0 36.7395,5.12225 47.4563,15.23528 v 0.004 0.004 c 10.8698,9.96398 16.3448,23.72755 16.3448,41.39411 v 27.48122 h -49.2346 c -36.3764,0 -64.9033,7.12156 -85.4862,21.46718 -20.4787,14.38204 -30.7289,33.93837 -30.7289,58.65093 0,20.81207 7.4951,38.00554 22.5388,51.63876 15.1826,13.61739 34.9277,20.38039 59.1982,20.38039 16.955,0 32.9779,-3.41979 48.0795,-10.27 14.513,-6.6642 26.4871,-16.02221 36.0816,-27.91188 0.8377,14.18989 2.5006,25.3665 5.1603,32.90249 l 0.2306,0.65361 h 31.2939 v -3.9588 l -0.079,-0.18239 c -5.0218,-11.86972 -7.5596,-29.82662 -7.5596,-53.99474 v -118.48745 -0.009 c -0.4675,-25.25144 -8.8634,-44.92092 -25.3252,-59.03095 -16.269,-14.23534 -38.4963,-21.29996 -66.5928,-21.29998 z m 250.3735,0 c -30.0887,3e-5 -53.9555,11.61177 -71.5911,34.8658 -17.443,23.04984 -26.1159,54.28575 -26.1159,93.61554 v 3.70114 c 0,39.48834 8.8261,70.95009 26.5794,94.30966 17.7826,23.39823 41.3361,35.09631 70.6638,35.09631 33.1676,0 58.6485,-11.79198 76.5386,-35.23819 v 28.68709 c -0.4592,24.03768 -7.1108,42.67653 -19.8636,56.03657 -12.7333,13.49132 -30.5133,20.28918 -53.4348,20.28918 -26.6324,0 -49.7058,-11.88558 -69.1236,-35.73724 l -0.7119,-0.87398 -16.811,18.06749 0.4561,0.64853 c 9.2079,13.10978 21.7547,23.54614 37.6221,31.32423 16.025,7.93477 32.829,11.90143 50.4176,11.90143 31.0773,0 55.7944,-9.48556 74.061,-28.53254 18.2666,-19.04747 27.347,-44.82341 27.347,-77.27068 V 130.0178 h -27.8385 l -1.3174,34.24261 c -17.8811,-25.84185 -43.4841,-38.87094 -76.8778,-38.87094 z m 269.1148,0 c -19.6476,3e-5 -37.8664,5.61021 -54.6864,16.82364 -16.8198,11.05754 -29.9658,26.31206 -39.451,45.74886 -9.3269,19.43112 -13.9788,41.25026 -13.9788,65.44524 v 9.95081 c 0,23.43662 4.8106,44.63816 14.455,63.61619 9.6433,18.82013 23.1056,33.5368 40.3934,44.12754 17.4401,10.58857 36.9,15.87617 58.3597,15.87617 39.0314,0 68.8609,-14.85541 89.4306,-44.61899 l 0.5345,-0.77012 -18.8731,-14.34607 -0.5954,0.76506 c -9.1776,11.77809 -19.4013,20.31289 -30.658,25.63698 -11.1056,5.32459 -23.997,8.00269 -38.6834,8.00269 -24.3709,0 -44.6605,-9.3031 -60.8068,-27.88654 -16.0215,-18.7681 -24.0613,-42.22791 -24.0613,-70.40291 v -4.34209 h 178.6407 v -16.48417 c 0,-36.11672 -8.9907,-64.6681 -27.0759,-85.55964 -17.9646,-21.08882 -42.2738,-31.58262 -72.9438,-31.58265 z m 245.2842,0 c -21.7634,0 -40.8463,5.20985 -57.2248,15.66086 -16.216,10.44685 -28.6738,25.25234 -37.384,44.38341 -8.7062,19.12277 -13.0489,41.09241 -13.0489,65.89109 v 8.3295 c 0,38.73858 9.6083,69.67583 28.9252,92.73141 19.5046,23.09347 45.8206,34.59218 78.9629,34.59218 16.8085,0 32.5311,-3.57749 47.1701,-10.74118 14.7976,-7.16514 26.6501,-17.06359 35.5498,-29.71053 8.8972,-12.79938 13.7401,-26.93529 14.5208,-42.39222 l 0.05,-1.03105 h -28.5629 l -0.056,0.91958 c -1.0617,16.98553 -8.0592,30.89557 -20.9402,41.65505 -12.7518,10.62632 -28.6553,15.9699 -47.7324,15.9699 -24.8545,0 -44.1058,-8.85285 -57.7669,-26.46031 -13.5588,-17.67215 -20.3905,-42.3516 -20.3905,-74.14458 v -8.09897 c 0,-32.41432 6.8334,-57.47744 20.3905,-75.29977 13.6673,-17.76734 32.8405,-26.69083 57.5363,-26.69083 19.3659,0 35.3211,5.94432 47.925,17.78881 12.7524,11.84152 19.7585,27.41332 20.9782,46.77738 l 0.058,0.91958 h 28.5554 l -0.045,-1.02599 c -1.245,-26.92323 -10.9058,-48.69515 -29.0087,-65.23751 -17.9491,-16.54433 -40.7843,-24.78581 -68.4625,-24.78581 z M 602.79165,130.01779 V 382.3521 h 29.72826 V 130.0178 Z m 1132.51895,20.93519 c 20.6857,0 37.4188,7.46376 50.1643,22.33356 12.7771,14.90661 19.5924,34.29193 20.3577,58.16708 v 1.99876 h -148.0233 c 3.183,-25.05699 11.6526,-45.04494 25.4572,-59.89985 14.144,-15.0566 31.5177,-22.59955 52.0441,-22.59955 z m -264.0255,0.46359 c 16.9514,0 31.4071,4.19642 43.4132,12.55502 11.9607,8.17566 21.1575,20.15766 27.5723,35.97032 v 115.93136 c -14.0451,30.08366 -37.7899,45.08005 -71.4491,45.08005 -22.9721,0 -40.7389,-9.0455 -53.3412,-27.1139 -12.6563,-18.2983 -19.0301,-43.30582 -19.0301,-75.10977 0,-35.5313 6.451,-62.2031 19.258,-80.19413 12.7588,-18.0749 30.6046,-27.11895 53.5769,-27.11895 z m -241.5804,106.67468 h 48.5404 v 53.84781 c -6.5494,14.68715 -17.0329,26.4628 -31.4686,35.27618 -14.3323,8.84338 -30.6601,13.27448 -49.0041,13.27448 -16.4565,0 -29.8044,-4.57224 -40.0718,-13.63167 -10.1062,-9.05048 -15.1769,-20.47485 -15.1769,-34.21221 0,-16.75181 7.6013,-29.88453 22.9137,-39.43586 15.3771,-9.74387 36.7723,-14.81147 64.2673,-15.11873 z"
         id="text1"
         style="font-weight:300;font-size:365.371px;font-family:Roboto;-inkscape-font-specification:'Roboto, Light';display:inline;fill:#f2f2f2;stroke-width:8.10707;stroke-linecap:round"
         aria-label="imagect"
         inkscape:label="imagect" />
    </g>
  </g>
</svg>
